<svg xmlns="http://www.w3.org/2000/svg" viewBox="949 170 416.966 509.9">
  <defs>
    <style>
      .cls-1 {
        fill: #ff931e;
      }

      .cls-2 {
        fill: #ddeffd;
      }
    </style>
  </defs>
  <g id="tree" transform="translate(949.026 169.9)">
    <g id="Layer_3" transform="translate(386.833 294.152)">
      <path id="XMLID_3_" class="cls-1" d="M359.4,273.3" transform="translate(-359.4 -273.3)"/>
    </g>
    <g id="Layer_2" transform="translate(-0.026 0.1)">
      <g id="Group_5" data-name="Group 5">
        <path id="XMLID_2_" class="cls-2" d="M72.179,387.533s77.172,20.773,107.632-57.045c0,0,7.857-21.526-1.83-47.035,0,0-14.315-20.773-36.272-28.307q-14.369-4.359-29.707-9.687c-5.92-2.045-11.84-4.2-17.652-6.458-8.718-3.229-16.791-5.6-23.033-12.916-12.378-14.423-8.18-34.335-7.427-37.671,0,0-8.288,35.2,51.986,44.452,0,0,55.969,11.517,62.427,25.078a19.865,19.865,0,0,1-.431-2.476,31.406,31.406,0,0,0-3.66-7.965c-5.489-9.149-12.593-17.006-20.235-24.433-4.305-4.2-8.611-8.5-13.669-11.732a47.726,47.726,0,0,1-17.221-20.558c-4.951-11.3-5.382-24-3.337-36.057-.969,5.812.646,12.916,2.476,18.405,4.413,13.454,14.53,23.787,27.554,29.276,9.579,4.09,18.082,12.378,25.294,19.7a91.178,91.178,0,0,1,16.145,21.849c-.646-1.292.108-4.736.108-6.027.108-4.951.431-9.9.861-14.853.969-11.3,2.26-23.679,7.211-34.119,3.014-6.243,9.256-10.763,13.885-15.93s9.9-11.194,11.947-18.082A100.748,100.748,0,0,0,229.646,129s6.458,26.37-3.875,41.761c0,0-12.593,18.62-16.145,37.994,0,0-1.4,12.916,2.476,43.806,0-.431.646-1.292.753-1.614.753-1.507,1.507-3.014,2.368-4.521A134.527,134.527,0,0,1,224.264,232a101.437,101.437,0,0,1,13.024-14.961,66.165,66.165,0,0,1,7.965-6.566,34.361,34.361,0,0,1,10.44-5.382l3.875-1.292a64.881,64.881,0,0,0,10.656-5.166c9.149-5.6,16.683-13.669,20.235-23.894a46.326,46.326,0,0,0,2.476-11.947c.108-2.26.108-4.628,0-7-.108-2.045.108-5.489-.861-7.319,0,0,11.086,21.849-.753,41.654a41.329,41.329,0,0,1-4.736,5.812,105.185,105.185,0,0,1-15.607,13.777,148.132,148.132,0,0,1-13.024,8.288,54.744,54.744,0,0,0-6.027,3.444,49.269,49.269,0,0,0-8.826,10.117,80.1,80.1,0,0,0-10.333,20.558s16.468-9.364,35.2-11.84c0,0,34.442-3.552,41.977-7.857,0,0,17.544-6.135,22.926-25.509,0,0,3.229,24-25.832,33.366-3.875,1.292-7.75,2.476-11.624,3.767-21.311,7.211-20.235,7.75-31.213,11.086a48.763,48.763,0,0,0-10.117,4.09,61.569,61.569,0,0,0-5.7,3.552c-2.26,1.4-4.305,3.014-7,4.736a62.974,62.974,0,0,0-5.7,4.628,44.775,44.775,0,0,0-10.01,14.53s-5.382,24.648,0,46.5a21.123,21.123,0,0,0,1.937,4.2c1.83,3.552,3.767,7.1,5.92,10.44a98.373,98.373,0,0,0,10.01,13.131,73.645,73.645,0,0,0,14.1,12.378,54.679,54.679,0,0,0,18.3,8.072c1.292.323,2.691.538,4.09.753a22.622,22.622,0,0,1,4.521.969c1.4.538,2.8,1.507,4.2,2.045a28.571,28.571,0,0,0,3.982,1.292c1.722.431,3.444.753,5.166,1.076a40.742,40.742,0,0,0,6.243.538,57.068,57.068,0,0,0,7.427-.215,73.47,73.47,0,0,0,8.5-1.184,80.613,80.613,0,0,0,9.687-2.583c.969-.323,2.045-.753,3.014-.969a11.444,11.444,0,0,1,3.337-.108c.753.108,1.615.215,2.368.323a22.511,22.511,0,0,1,5.812,1.722,19.112,19.112,0,0,1,4.843,3.014,20.323,20.323,0,0,1,2.153,2.153l.969,1.292c.215.323.646,1.292.969,1.4a40.4,40.4,0,0,0-25.078-1.83s-8.288,2.906-10.44,4.628l-2.153,1.83s36.6,12.593,25.832,39.824c0,0,6.781-32.29-61.673-40.577,0,0,13.992,7.857,10.763,18.3,0-.108-.646-.861-.646-.969-.646-.861-1.292-1.614-2.045-2.476a37.952,37.952,0,0,0-7.319-6.458,21.648,21.648,0,0,0-4.736-2.368c-1.292-.538-3.552-.538-4.521-1.722-2.153-2.583-4.736-5.274-6.35-8.4-.538-1.184-3.121-1.507-4.413-1.937-2.368-.753-4.736-1.615-7.211-2.476a129.141,129.141,0,0,1-16.468-6.781,42.051,42.051,0,0,1-4.736-2.8c-.753-.646-1.83-1.4-2.045-2.476,0,0,16.145,28.738,27.231,33.043,0,0,27.231,17.544,29.061,20.127,1.83,2.476,5.274,6.888.753,27.984a8.779,8.779,0,0,0,0-2.906,51.036,51.036,0,0,0-.538-7c-.861-5.489-2.583-11.624-7.1-15.176-2.691-2.153-6.135-3.444-9.149-5.059a77.677,77.677,0,0,0-10.548-4.843,29.834,29.834,0,0,0-7.534-1.937s-5.059,11.84,2.476,17.975c0,0-6.781,6.781-11.84-19.051,0,0-7.857-13.992-28.738-30.46,0,0,.323,33.043,1.83,44.129,0,0,21.849,35.519,1.83,50.264,0,0,11.84-22.28-11.517-40.9,0,0-19.7,20.127-25.832,34.442,0,0-5.382,14.315-4.305,22.6,0,0-3.229,6.458-3.552-20.127,0,0-10.763,9.364-16.9,6.458,0,0,26.047-16.683,34.012-44.99a30.823,30.823,0,0,0,.753-3.014c6.781-30.137-5.7-44.452-5.7-44.452s-16.145,26.908-25.832,30.137c0,0-11.84,20.773-12.593,24.755s-1.83,1.076-1.83,1.076-1.83-3.229,3.229-16.468c0,0,3.552-5.382-1.076-5.382,0,0-24.755,8.611-32.29,28.738,0,0-5.7,13.669-2.476,21.849,0,0-6.781-11.086,4.628-40.9,0,0-9.364-4.305-15.069,13.239,0,0-3.014-21.419,18.62-21.2,0,0,39.393-9.579,47.035-48.758,0,0-25.832,14.315-67.486,17.975,0,0-25.078,10.44-26.585,24.433-1.4,13.992-1.83-1.076-1.83-1.076s-.753-13.669,17.544-26.155C88.97,395.821,70.349,392.592,72.179,387.533Z" transform="translate(4.806 9.739)"/>
        <path id="XMLID_1_" class="cls-2" d="M137.664,296.412c-3.982-.431-8.4.323-12.378.215a169.555,169.555,0,0,1-31.321-3.875c-30.245-6.673-61.35-22.388-81.047-46.82C2.047,232.263-.321,210.306,0,193.408c.323-18.19,5.382-36.164,15.391-51.341,2.153-3.229,4.521-6.35,7-9.364a137.456,137.456,0,0,1,28.953-25.724,86.986,86.986,0,0,1,26.37-11.84c1.292-.323,16.36-3.121,16.36-3.552,0,0,9.687-87.613,120.118-91.488,0,0,116.566-1.076,132.388,97.407,0,0,56.722,12.162,68.885,68.562,0,0,10.763,48.435-25.832,88.581,0,0-37.671,44.883-117,39.071,0,0,91.165-2.906,118.073-70.715,0,0,15.391-49.188-7.211-78.572,0,0-17.544-29.061-53.493-36.272-.108,0-1.292-9.364-1.507-9.9a84.605,84.605,0,0,0-8.933-23.249,88.867,88.867,0,0,0-23.141-26.693c-12.916-10.01-28.307-16.36-44.237-20.127a171.175,171.175,0,0,0-19.7-3.444c-9.579-1.076-18.62-1.614-28.092,0q-7.265,1.292-14.53,3.229a131.494,131.494,0,0,0-37.348,16.36c-13.562,8.826-24.971,20.881-31.967,35.626a89.548,89.548,0,0,0-5.059,13.562c-.431,1.4-2.691,15.284-2.906,15.284,0,0-85.568,14.53-90.411,78.249C22.39,187.165,3.661,281.236,137.664,296.412Z" transform="translate(0.026 -0.1)"/>
      </g>
    </g>
  </g>
</svg>
